<svg xmlns="http://www.w3.org/2000/svg" fill="currentColor" viewBox="0 0 640.8 530.3" xml:space="preserve">
  <path d="M576.4 425.1v-256c0-35.3-28.7-64-64-64h-74.7L427.3 74c-6.5-19.6-24.8-32.8-45.5-32.8H259c-20.7 0-39 13.2-45.5 32.8l-10.4 31.2h-74.7c-9.9 0-19.3 2.3-27.7 6.3l148.2 121c17.4-19.3 42.8-31.3 71.5-31.3 53 0 96 42.1 96 96 0 21.3-6.9 40.9-18.6 56.8l151.4 123.6c16.4-11.7 27.2-30.8 27.2-52.5zm-256-32c-53.9 0-96-43-96-96 0-13 2.4-25.2 6.9-36.4l-156-127.3c-6.9 10.2-10.9 22.5-10.9 35.7v256c0 35.3 28.7 64 64 64h382.7L373.7 377c-15.3 10.2-33.6 16.1-53.3 16.1z"/>
  <path d="M621.3 510.8 19.5 19.5" fill="#fff"/>
  <path d="M621.3 530.3c-4.3 0-8.7-1.4-12.3-4.4L7.2 34.6c-8.3-6.8-9.6-19.1-2.8-27.4s19.1-9.6 27.4-2.8l601.8 491.3c8.3 6.8 9.6 19.1 2.8 27.4-3.9 4.7-9.5 7.2-15.1 7.2z"/>
</svg>