<?xml version="1.0" standalone="no"?>
<!DOCTYPE svg PUBLIC "-//W3C//DTD SVG 20010904//EN"
 "http://www.w3.org/TR/2001/REC-SVG-20010904/DTD/svg10.dtd">
<svg version="1.0" xmlns="http://www.w3.org/2000/svg"
 width="200.000000pt" height="200.000000pt" viewBox="0 0 200.000000 200.000000"
 preserveAspectRatio="xMidYMid meet">
<metadata>
Created by potrace 1.14, written by Peter Selinger 2001-2017
</metadata>
<g transform="translate(0.000000,200.000000) scale(0.100000,-0.100000)"
fill="#000000" stroke="none">
<path d="M780 1989 c-90 -24 -120 -34 -185 -62 -271 -114 -493 -368 -568 -649
-19 -71 -22 -108 -22 -263 0 -99 3 -194 8 -211 17 -76 49 -164 58 -164 5 0 9
-6 7 -13 -5 -21 44 -117 59 -117 7 0 13 -10 13 -22 0 -17 3 -19 12 -10 9 9 8
16 -3 29 -9 10 -32 56 -53 102 -103 229 -115 484 -36 723 24 71 91 198 126
241 13 16 24 37 24 48 0 11 4 18 8 15 4 -2 37 25 72 61 173 175 432 285 675
287 126 0 334 -36 372 -66 12 -9 30 8 19 19 -3 3 -43 17 -88 31 -75 23 -102
26 -273 28 -104 2 -206 -1 -225 -7z"/>
<path d="M962 1928 c-21 -22 -23 -22 -51 -5 -15 9 -31 14 -35 10 -8 -8 -8 -56
0 -77 8 -21 24 -10 24 16 0 17 2 18 15 8 13 -10 19 -10 34 4 19 17 20 17 23
-5 2 -12 9 -24 17 -27 11 -4 12 6 8 43 -4 26 -8 49 -10 51 -2 2 -13 -6 -25
-18z"/>
<path d="M1049 1938 c-1 -2 -3 -22 -4 -45 -3 -34 0 -42 17 -46 23 -6 48 1 48
14 0 5 -12 10 -27 10 -24 2 -25 2 -5 6 27 5 28 11 5 30 -17 13 -16 14 5 10 14
-4 22 0 22 9 0 9 -11 14 -30 14 -16 0 -30 -1 -31 -2z"/>
<path d="M1162 1913 c-16 -32 -22 -72 -12 -78 6 -3 13 1 16 9 8 22 21 20 29
-4 8 -26 35 -27 28 -1 -3 10 0 22 6 25 22 14 11 44 -20 55 -40 14 -37 14 -47
-6z m49 -28 c-1 -15 -24 -12 -29 3 -3 9 2 13 12 10 10 -1 17 -7 17 -13z"/>
<path d="M752 1912 c-9 -6 -11 -20 -7 -46 8 -42 24 -56 37 -32 7 13 13 15 23
6 20 -17 39 -2 23 17 -7 8 -12 25 -13 37 0 23 -39 34 -63 18z m42 -21 c3 -5
-1 -14 -9 -21 -13 -10 -15 -9 -15 9 0 21 14 28 24 12z"/>
<path d="M1382 1910 c5 -16 167 -100 173 -90 6 10 -33 39 -102 74 -56 28 -77
32 -71 16z"/>
<path d="M1284 1876 c-3 -8 -1 -23 5 -35 17 -30 13 -36 -9 -16 -17 15 -20 16
-20 3 0 -26 26 -41 49 -28 25 13 25 14 5 45 -17 26 -7 34 14 13 9 -9 12 -8 12
4 0 27 -47 38 -56 14z"/>
<path d="M638 1873 c-14 -3 -18 -15 -18 -54 0 -53 8 -61 28 -28 11 17 20 20
43 15 16 -3 29 -1 29 4 0 9 -56 71 -62 69 -2 -1 -11 -3 -20 -6z m23 -36 c-1
-12 -15 -9 -19 4 -3 6 1 10 8 8 6 -3 11 -8 11 -12z"/>
<path d="M1376 1844 c-4 -10 -1 -14 6 -12 15 5 23 28 10 28 -5 0 -13 -7 -16
-16z"/>
<path d="M536 1825 c-16 -12 -17 -18 -6 -44 7 -17 18 -35 25 -41 10 -9 13 -3
12 24 0 19 -5 33 -9 30 -4 -3 -8 0 -8 6 0 6 7 13 15 16 8 4 15 10 15 15 0 13
-22 10 -44 -6z"/>
<path d="M1566 1811 c-3 -4 18 -28 47 -52 106 -90 195 -204 253 -324 70 -144
86 -228 87 -449 0 -111 -4 -146 -26 -228 -47 -175 -139 -325 -279 -456 -55
-51 -148 -122 -160 -122 -5 0 -26 -11 -47 -25 -22 -13 -52 -27 -68 -31 -15 -4
-33 -10 -38 -15 -13 -10 -146 -46 -200 -55 -117 -18 -320 -3 -430 32 -55 18
-227 93 -235 104 -3 3 -32 27 -65 52 -56 42 -121 105 -193 186 -18 21 -32 30
-36 23 -20 -32 292 -310 352 -315 9 0 23 -8 32 -17 9 -8 59 -29 111 -47 368
-122 780 -20 1042 258 119 126 197 265 242 433 23 85 25 105 21 267 -3 141 -8
191 -25 255 -47 169 -155 344 -287 462 -73 65 -90 77 -98 64z"/>
<path d="M875 1800 c-22 -4 -43 -6 -47 -3 -5 2 -8 -1 -8 -7 0 -6 -4 -9 -9 -5
-22 13 -175 -52 -271 -115 -150 -99 -278 -279 -326 -460 -27 -99 -25 -301 4
-403 100 -353 410 -589 772 -589 303 1 579 170 712 437 109 218 115 467 17
684 -48 105 -99 170 -99 126 0 -8 4 -15 9 -15 8 0 75 -130 69 -135 -2 -1 -64
-5 -138 -8 -130 -5 -137 -7 -203 -41 -37 -20 -70 -36 -71 -36 -2 0 -4 16 -4
35 0 46 -30 102 -75 138 -68 56 -187 45 -251 -22 -16 -16 -25 -34 -22 -39 3
-6 1 -12 -6 -14 -12 -4 -20 -28 -22 -70 0 -16 -4 -28 -8 -28 -3 0 -64 30 -133
66 -75 39 -135 64 -146 61 -11 -3 -17 -1 -13 4 3 5 -22 9 -57 9 -46 0 -83 -8
-148 -34 -107 -42 -131 -49 -131 -39 0 20 67 133 112 190 55 70 166 173 186
173 7 0 10 5 7 10 -3 6 2 10 12 10 10 0 32 8 48 18 60 37 260 92 303 84 6 -2
12 4 12 13 0 16 -13 17 -75 5z m312 -413 c44 -30 67 -73 67 -130 1 -55 -12
-70 -78 -88 -49 -13 -119 -5 -192 22 -51 19 -54 22 -54 55 0 135 146 216 257
141z m-687 -91 c0 -2 -7 -7 -16 -10 -8 -3 -12 -2 -9 4 6 10 25 14 25 6z m147
-68 c-3 -8 -6 -5 -6 6 -1 11 2 17 5 13 3 -3 4 -12 1 -19z m833 2 c0 -5 -2 -10
-4 -10 -3 0 -8 5 -11 10 -3 6 -1 10 4 10 6 0 11 -4 11 -10z m235 -30 c-3 -5
-11 -10 -16 -10 -6 0 -7 5 -4 10 3 6 11 10 16 10 6 0 7 -4 4 -10z m-1123 -17
c37 -34 7 -136 -36 -120 -16 6 -16 9 3 33 28 35 26 52 -4 66 -21 10 -30 8 -53
-9 -37 -27 -70 -77 -83 -127 -39 -143 11 -232 102 -179 15 9 32 14 36 9 13
-12 -13 -40 -49 -54 -51 -20 -103 4 -125 55 -37 89 13 268 89 321 39 26 94 29
120 5z m-202 -7 c0 -3 -4 -8 -10 -11 -5 -3 -10 -1 -10 4 0 6 5 11 10 11 6 0
10 -2 10 -4z m1210 -84 c10 -12 17 -30 15 -40 -2 -9 -4 -22 -4 -28 -2 -21 -51
-61 -82 -68 -22 -4 -33 -14 -40 -36 -11 -29 -23 -38 -33 -22 -3 4 -1 27 5 50
5 23 12 59 15 80 3 20 8 40 11 45 2 4 -3 7 -11 7 -27 0 -18 19 12 26 15 3 31
7 37 8 28 7 59 -2 75 -22z m-191 -19 c13 -28 -1 -125 -22 -154 -17 -22 -59
-46 -77 -44 -8 1 -22 3 -32 3 -28 3 -38 54 -24 116 15 64 29 84 69 101 39 16
72 8 86 -22z m-1182 -15 c-3 -8 -6 -5 -6 6 -1 11 2 17 5 13 3 -3 4 -12 1 -19z
m833 7 c0 -13 -56 -146 -79 -185 -4 -8 -16 -16 -25 -18 -12 -3 -16 5 -18 35
-3 85 -10 88 -38 19 -23 -55 -47 -77 -61 -55 -4 7 -8 56 -8 110 -1 82 1 99 14
99 17 0 17 1 19 -62 1 -26 4 -50 8 -53 3 -3 17 19 31 49 14 30 30 57 36 60 14
9 27 -22 30 -69 1 -21 3 -41 5 -42 2 -2 17 26 34 62 30 62 52 83 52 50z m-284
-31 c9 -15 9 -33 -2 -82 -15 -72 -26 -90 -67 -107 -39 -16 -76 -7 -89 21 -17
36 6 132 38 166 41 41 94 43 120 2z m954 22 c0 -3 -4 -8 -10 -11 -5 -3 -10 -1
-10 4 0 6 5 11 10 11 6 0 10 -2 10 -4z m-521 -75 c2 -1 -2 -8 -9 -16 -17 -21
-120 -21 -120 -1 0 16 81 27 129 17z m401 -86 c0 -8 -2 -15 -4 -15 -2 0 -6 7
-10 15 -3 8 -1 15 4 15 6 0 10 -7 10 -15z m124 -86 c-3 -5 -18 -9 -34 -9 -23
0 -28 -4 -24 -17 5 -14 4 -15 -4 -4 -15 21 -142 14 -257 -15 -33 -9 -69 -17
-80 -20 -39 -9 -121 -6 -182 6 -75 15 -126 10 -263 -25 -58 -15 -141 -29 -185
-31 -44 -3 -100 -8 -125 -11 -25 -4 -56 -6 -70 -6 -32 1 -107 -17 -140 -34
-32 -17 -49 -16 -56 1 -6 15 30 59 40 49 2 -3 10 -2 17 3 20 12 141 22 309 25
58 1 128 8 155 16 28 7 61 16 75 18 14 3 54 11 89 18 62 13 86 12 216 -11 40
-7 74 -3 175 20 69 15 163 30 210 34 47 4 86 8 88 9 7 6 51 -9 46 -16z m-20
-63 c-3 -8 -35 -15 -87 -20 -45 -3 -99 -11 -121 -17 -21 -6 -46 -12 -55 -14
-9 -2 -54 -13 -100 -25 -75 -20 -99 -22 -212 -15 -122 6 -130 6 -229 -24 -78
-23 -130 -32 -219 -36 -126 -7 -190 -18 -262 -46 -26 -10 -50 -15 -53 -12 -15
16 -2 30 41 45 60 21 101 27 233 33 58 3 114 7 125 9 11 2 41 7 68 10 26 4 45
11 42 16 -3 5 3 8 12 7 37 -2 114 25 109 39 -3 8 -1 14 4 14 6 0 10 -6 10 -12
0 -8 17 -14 48 -15 26 -1 79 -4 118 -7 39 -2 88 0 110 5 21 5 50 12 64 15 14
2 39 9 56 15 42 13 72 20 113 26 18 3 28 9 22 12 -6 4 6 6 27 5 21 -1 56 2 78
5 46 9 65 4 58 -13z m-24 -66 c0 -12 -65 -45 -107 -55 -24 -5 -33 -12 -33 -27
0 -17 -2 -18 -15 -8 -13 11 -23 11 -55 0 -22 -7 -37 -16 -35 -20 3 -4 -6 -7
-19 -7 -31 0 -273 -104 -481 -206 -135 -67 -175 -83 -195 -77 -22 7 -9 15 100
67 69 33 198 90 288 128 89 38 162 72 162 76 0 19 -239 5 -470 -27 -74 -10
-184 -37 -265 -64 -72 -24 -86 -26 -96 -14 -6 8 -10 16 -8 18 29 25 558 123
644 118 6 0 69 -1 140 -2 118 -1 136 1 200 25 98 37 229 83 238 84 4 1 7 -3 7
-9z m-66 -105 c-6 -16 -51 -38 -177 -90 -37 -16 -70 -32 -73 -37 -3 -4 -14 -8
-24 -8 -14 0 -18 -5 -14 -17 5 -15 4 -16 -5 -3 -10 13 -13 12 -27 -5 -8 -11
-23 -19 -32 -17 -10 1 -33 -9 -51 -22 -19 -14 -37 -23 -42 -21 -4 3 -54 -20
-111 -51 -112 -61 -128 -66 -148 -54 -14 9 73 57 245 136 22 10 43 23 47 28 4
6 8 8 8 4 0 -12 124 43 141 63 9 10 19 15 22 12 7 -6 37 5 137 50 36 17 71 31
78 33 8 1 16 5 20 8 9 10 12 7 6 -9z m-117 -17 c-3 -8 -6 -5 -6 6 -1 11 2 17
5 13 3 -3 4 -12 1 -19z m-421 -39 c10 -17 -13 -36 -27 -22 -12 12 -4 33 11 33
5 0 12 -5 16 -11z m-183 -43 c3 -8 -1 -17 -9 -20 -23 -9 -24 -8 -24 14 0 23
25 27 33 6z m95 -19 c2 -10 -3 -17 -12 -17 -10 0 -16 9 -16 21 0 24 23 21 28
-4z m467 3 c3 -5 1 -10 -4 -10 -6 0 -11 5 -11 10 0 6 2 10 4 10 3 0 8 -4 11
-10z m-731 -41 c-8 -14 -34 -11 -34 4 0 8 3 17 7 20 9 9 34 -13 27 -24z m-161
-4 c8 -18 -11 -31 -25 -17 -11 11 -3 32 12 32 4 0 10 -7 13 -15z m902 -1 c-26
-21 -268 -138 -318 -154 -56 -18 -55 -7 2 20 28 14 47 29 44 36 -2 7 0 15 6
19 7 3 8 0 5 -9 -8 -20 -3 -20 40 1 19 9 32 21 29 26 -3 6 -1 7 5 3 6 -3 50
11 99 33 96 43 119 49 88 25z m-645 -20 c0 -14 -21 -19 -33 -7 -9 9 13 34 24
27 5 -3 9 -12 9 -20z m-148 -56 c-9 -9 -15 -9 -24 0 -10 10 -10 15 2 22 20 12
38 -6 22 -22z"/>
<path d="M1516 1058 c-11 -44 -7 -68 12 -68 27 0 54 34 50 62 -4 33 -53 38
-62 6z"/>
<path d="M1311 1057 c-15 -19 -35 -112 -28 -131 8 -21 51 -21 68 0 20 24 37
98 27 123 -8 24 -49 29 -67 8z"/>
<path d="M677 1013 c-14 -16 -30 -74 -32 -112 0 -24 30 -36 58 -24 20 9 28 24
37 68 6 31 9 63 6 71 -8 20 -50 18 -69 -3z"/>
<path d="M974 1794 c11 -7 23 -11 28 -8 24 15 264 -41 315 -74 12 -8 27 -12
33 -10 7 2 30 -14 53 -35 22 -20 47 -35 54 -33 7 3 13 -1 13 -10 0 -9 5 -12
12 -8 8 5 -1 18 -26 40 -42 36 -116 78 -116 66 0 -4 -4 -2 -8 4 -10 16 -155
64 -206 68 -24 2 -48 6 -53 9 -5 3 -34 6 -63 5 -49 0 -53 -1 -36 -14z"/>
<path d="M1476 1758 c-27 -35 -25 -59 4 -33 16 15 17 14 12 -11 -5 -26 -3 -27
28 -21 28 6 31 5 20 -8 -9 -11 -10 -19 -3 -26 7 -7 17 1 32 25 27 43 21 59
-15 46 -35 -14 -34 -14 -34 25 0 43 -11 44 -44 3z"/>
<path d="M381 1716 l-23 -24 23 -31 c27 -37 39 -38 67 -8 30 32 28 43 -4 22
-14 -9 -29 -13 -32 -9 -4 4 -1 9 6 11 6 3 12 12 12 21 0 12 -3 13 -12 4 -19
-19 -33 -14 -15 6 34 38 13 45 -22 8z"/>
<path d="M1071 1694 c0 -11 3 -14 6 -6 3 7 2 16 -1 19 -3 4 -6 -2 -5 -13z"/>
<path d="M931 1670 c0 -17 38 -110 38 -95 1 6 -8 33 -19 60 -10 28 -19 43 -19
35z"/>
<path d="M1142 1660 c0 -14 2 -19 5 -12 2 6 2 18 0 25 -3 6 -5 1 -5 -13z"/>
<path d="M1010 1651 c0 -11 4 -22 9 -25 4 -3 6 6 3 19 -5 30 -12 33 -12 6z"/>
<path d="M1217 1650 c-3 -11 -1 -20 4 -20 5 0 9 9 9 20 0 11 -2 20 -4 20 -2 0
-6 -9 -9 -20z"/>
<path d="M1608 1653 c-41 -17 -50 -33 -19 -33 22 0 44 -23 39 -42 -7 -30 18
-18 35 16 13 28 15 41 7 56 -12 23 -13 23 -62 3z m42 -28 c0 -8 -4 -15 -10
-15 -5 0 -10 7 -10 15 0 8 5 15 10 15 6 0 10 -7 10 -15z"/>
<path d="M305 1640 c-3 -6 1 -13 9 -16 28 -11 17 -24 -19 -24 -44 0 -46 -21
-5 -50 36 -26 60 -17 28 10 l-23 19 43 1 c23 0 42 4 42 8 0 10 -53 62 -62 62
-4 0 -10 -5 -13 -10z"/>
<path d="M850 1632 c6 -13 14 -21 18 -18 3 4 -2 14 -12 24 -18 16 -18 16 -6
-6z"/>
<path d="M1070 1618 c0 -23 3 -29 9 -19 8 12 4 51 -5 51 -2 0 -4 -15 -4 -32z"/>
<path d="M786 1620 c10 -20 90 -116 133 -160 29 -30 25 -16 -5 16 -5 6 -26 30
-45 54 -51 62 -92 107 -83 90z"/>
<path d="M1497 1613 c-3 -5 18 -32 48 -61 58 -56 87 -57 31 -1 -54 56 -74 71
-79 62z"/>
<path d="M1131 1543 c2 -70 6 -63 11 20 2 26 0 47 -4 47 -5 0 -7 -30 -7 -67z"/>
<path d="M1201 1584 c0 -11 3 -14 6 -6 3 7 2 16 -1 19 -3 4 -6 -2 -5 -13z"/>
<path d="M1247 1524 c-21 -42 -33 -73 -28 -70 11 7 74 137 69 142 -2 2 -21
-31 -41 -72z"/>
<path d="M926 1520 c26 -39 49 -68 52 -66 4 5 -86 136 -94 136 -2 0 17 -32 42
-70z"/>
<path d="M1023 1560 c4 -14 7 -37 7 -52 0 -16 4 -28 9 -28 9 0 -5 89 -15 99
-4 3 -4 -5 -1 -19z"/>
<path d="M1348 1555 c-25 -34 -22 -43 3 -11 12 15 20 29 18 31 -2 1 -12 -7
-21 -20z"/>
<path d="M1350 1483 c-47 -48 -74 -78 -61 -68 40 33 160 155 153 155 -4 0 -46
-39 -92 -87z"/>
<path d="M1693 1548 c-38 -26 -41 -38 -13 -38 14 0 19 -6 17 -21 -1 -12 4 -24
11 -26 6 -3 12 2 12 11 0 9 8 16 20 16 27 0 36 25 20 56 -16 30 -27 30 -67 2z
m50 -14 c11 -11 -3 -24 -18 -18 -8 4 -12 10 -9 15 6 11 18 12 27 3z"/>
<path d="M1075 1550 c-3 -5 -1 -10 4 -10 6 0 11 5 11 10 0 6 -2 10 -4 10 -3 0
-8 -4 -11 -10z"/>
<path d="M1182 1513 c-7 -25 -11 -47 -9 -50 2 -2 10 17 17 42 7 25 11 48 8 50
-2 2 -10 -16 -16 -42z"/>
<path d="M770 1532 c0 -5 11 -19 25 -32 14 -13 25 -20 25 -16 0 4 -11 18 -25
32 -14 14 -25 21 -25 16z"/>
<path d="M210 1526 c0 -2 18 -15 40 -30 28 -19 40 -22 40 -12 0 16 -42 46 -65
46 -8 0 -15 -2 -15 -4z"/>
<path d="M991 1500 c15 -45 24 -54 15 -15 -4 17 -12 34 -17 40 -5 5 -4 -6 2
-25z"/>
<path d="M1078 1505 c-3 -14 -1 -28 3 -31 5 -3 9 9 9 25 0 38 -6 40 -12 6z"/>
<path d="M1271 1468 c-18 -21 -29 -38 -23 -38 11 0 68 68 61 74 -2 1 -19 -15
-38 -36z"/>
<path d="M1460 1495 c-7 -8 -9 -15 -6 -15 4 0 14 7 22 15 9 8 11 15 6 15 -5 0
-15 -7 -22 -15z"/>
<path d="M873 1434 c21 -20 40 -35 42 -32 6 5 -61 68 -72 68 -4 0 9 -16 30
-36z"/>
<path d="M1358 1424 c-38 -24 -68 -47 -68 -50 0 -6 10 -1 83 48 31 21 57 41
57 43 0 8 -1 7 -72 -41z"/>
<path d="M755 1452 c6 -5 42 -27 80 -48 39 -20 66 -33 60 -27 -14 14 -153 89
-140 75z"/>
<path d="M1767 1443 c-37 -15 -47 -41 -13 -35 18 3 22 -18 5 -35 -8 -8 -8 -13
0 -17 15 -10 31 2 31 21 0 11 7 14 25 11 33 -7 32 10 -1 23 -25 9 -26 10 -9
23 28 20 4 26 -38 9z"/>
<path d="M160 1441 c0 -5 17 -19 37 -31 l37 -22 18 24 c9 13 18 26 18 31 0 13
-19 7 -28 -9 -8 -15 -12 -15 -40 0 -36 18 -42 19 -42 7z"/>
<path d="M1480 1418 c-30 -11 -59 -25 -65 -30 -5 -5 17 0 50 13 33 12 64 25
70 30 12 12 9 11 -55 -13z"/>
<path d="M691 1386 c2 -2 18 -6 34 -10 22 -5 26 -4 15 4 -14 9 -59 15 -49 6z"/>
<path d="M130 1366 c0 -9 7 -16 15 -16 26 0 16 -18 -15 -29 -16 -5 -30 -12
-30 -15 0 -8 57 -36 75 -36 22 0 18 15 -7 27 -22 9 -21 11 15 23 54 20 49 30
-30 54 -17 6 -23 3 -23 -8z"/>
<path d="M1350 1364 c-33 -13 -33 -14 -5 -8 17 3 34 10 40 15 11 11 8 11 -35
-7z"/>
<path d="M784 1363 c8 -9 99 -33 104 -28 4 3 -94 35 -106 35 -3 0 -2 -3 2 -7z"/>
<path d="M1490 1338 c0 -11 12 -10 30 2 12 7 10 9 -8 7 -12 0 -22 -5 -22 -9z"/>
<path d="M1375 1323 l-50 -13 50 6 c28 3 52 8 54 10 11 10 -8 9 -54 -3z"/>
<path d="M1804 1328 c-30 -10 -31 -11 -21 -44 12 -39 32 -46 25 -9 -6 29 0 32
18 8 12 -17 13 -16 14 6 0 24 1 24 14 5 19 -25 29 -13 17 20 -11 28 -19 30
-67 14z"/>
<path d="M803 1304 c3 -4 22 -8 43 -10 20 -2 34 -1 31 2 -3 4 -22 8 -43 10
-20 2 -34 1 -31 -2z"/>
<path d="M85 1220 c-23 -25 -13 -67 20 -82 21 -9 28 -8 45 7 26 23 26 71 1 85
-29 15 -46 12 -66 -10z m55 -15 c16 -19 6 -45 -19 -45 -23 0 -35 28 -20 46 15
18 24 18 39 -1z"/>
<path d="M1870 1221 c0 -14 -8 -21 -27 -23 -14 -2 -28 -9 -31 -16 -3 -10 5
-12 32 -8 28 5 36 3 36 -9 0 -8 7 -15 15 -15 14 0 14 31 -1 78 -6 19 -24 14
-24 -7z"/>
<path d="M85 996 c-21 -15 -15 -43 11 -53 24 -9 46 24 33 48 -12 23 -19 23
-44 5z"/>
<path d="M1856 994 c-12 -12 -13 -20 -6 -35 11 -20 19 -23 44 -13 22 8 20 41
-3 54 -15 7 -23 6 -35 -6z"/>
<path d="M1790 761 c0 -8 52 -23 59 -16 1 2 0 8 -4 14 -8 13 -55 15 -55 2z"/>
<path d="M133 747 c-35 -11 -39 -21 -23 -62 14 -38 36 -41 67 -11 22 23 25 31
17 53 -11 31 -19 34 -61 20z m47 -38 c0 -6 -4 -7 -10 -4 -5 3 -10 11 -10 16 0
6 5 7 10 4 6 -3 10 -11 10 -16z m-37 -9 c3 -11 2 -20 -3 -20 -4 0 -10 9 -13
20 -3 11 -2 20 3 20 4 0 10 -9 13 -20z"/>
<path d="M1866 751 c-4 -5 -2 -12 3 -15 5 -4 12 -2 15 3 4 5 2 12 -3 15 -5 4
-12 2 -15 -3z"/>
<path d="M1775 712 c-3 -4 4 -13 15 -22 28 -21 17 -54 -16 -46 -40 10 -35 -11
6 -28 50 -20 54 -20 46 0 -9 23 2 54 20 54 8 0 14 4 14 8 0 12 -77 42 -85 34z"/>
<path d="M188 622 c-31 -19 -36 -47 -12 -73 13 -14 21 -16 42 -8 35 13 53 29
46 40 -3 5 -15 2 -28 -6 -21 -14 -56 -12 -56 4 0 4 14 15 30 24 31 19 40 37
18 37 -7 0 -25 -8 -40 -18z"/>
<path d="M1705 569 c-10 -31 9 -45 40 -31 27 13 35 -1 9 -16 -11 -6 -13 -12
-6 -16 6 -4 21 3 33 15 19 19 20 23 5 37 -12 13 -20 13 -41 4 -15 -7 -25 -8
-25 -2 0 6 5 10 10 10 6 0 10 5 10 10 0 19 -29 10 -35 -11z"/>
<path d="M274 515 c-3 -14 -15 -30 -25 -36 -11 -5 -17 -15 -13 -20 4 -6 14 -5
27 4 12 8 32 13 45 11 27 -5 29 12 2 19 -13 3 -18 11 -14 20 3 8 1 18 -5 21
-6 4 -13 -5 -17 -19z"/>
<path d="M1641 481 l-21 -29 31 -26 c39 -33 43 -33 69 5 26 36 17 54 -10 19
-10 -14 -22 -22 -26 -18 -4 4 -1 14 5 22 8 10 9 16 1 21 -5 3 -13 -1 -16 -9
-3 -9 -11 -16 -16 -16 -6 0 -3 11 6 25 30 45 9 51 -23 6z"/>
<path d="M1551 386 l-22 -23 31 -29 c31 -30 45 -33 45 -11 0 6 10 13 23 15 28
4 29 19 1 27 -11 4 -18 9 -15 12 8 8 -14 33 -28 33 -7 0 -23 -11 -35 -24z m39
-22 c0 -17 -22 -14 -28 4 -2 7 3 12 12 12 9 0 16 -7 16 -16z"/>
<path d="M368 368 c-26 -32 -26 -33 -8 -50 26 -24 32 -23 24 6 -3 13 -1 27 5
30 6 4 16 16 21 27 18 32 -13 23 -42 -13z"/>
<path d="M1473 323 c-28 -19 -29 -26 -1 -63 28 -38 35 -38 34 0 -1 17 -7 30
-13 30 -18 0 -16 11 4 25 24 18 2 25 -24 8z"/>
<path d="M442 318 c-29 -29 1 -88 45 -88 21 0 53 29 53 48 0 38 -72 66 -98 40z
m66 -36 c4 -28 -24 -40 -45 -19 -14 13 -14 19 -3 32 18 22 44 15 48 -13z"/>
<path d="M560 230 c-18 -34 9 -66 68 -76 6 -1 12 3 12 10 0 6 -10 12 -21 13
-29 2 -43 18 -36 37 8 21 36 20 59 -1 15 -13 18 -14 18 -2 0 41 -80 56 -100
19z"/>
<path d="M1340 234 c0 -12 -6 -15 -25 -10 -30 8 -33 -9 -6 -24 11 -5 23 -19
26 -30 11 -35 21 -21 21 30 0 28 -3 50 -8 50 -4 0 -8 -7 -8 -16z"/>
<path d="M1237 204 c-3 -4 -2 -15 3 -25 6 -9 7 -25 4 -33 -10 -26 -32 -18 -39
14 -4 17 -13 30 -21 30 -17 0 -17 -3 0 -44 18 -42 28 -49 60 -36 27 10 32 31
20 78 -6 22 -15 27 -27 16z"/>
<path d="M698 166 c-16 -19 -24 -37 -19 -41 5 -3 12 -1 16 4 7 12 33 4 58 -17
16 -14 17 -12 17 21 0 76 -28 88 -72 33z m42 -6 c0 -5 -5 -10 -11 -10 -5 0 -7
5 -4 10 3 6 8 10 11 10 2 0 4 -4 4 -10z"/>
<path d="M825 139 c-8 -46 -9 -45 28 -54 30 -8 39 10 9 19 -14 5 -17 14 -14
41 6 49 -15 44 -23 -6z"/>
<path d="M1070 170 c-22 -5 -25 -11 -22 -40 2 -19 6 -38 9 -42 7 -12 68 -9 80
3 12 12 6 49 -9 49 -5 0 -7 4 -3 9 9 15 -27 29 -55 21z m30 -20 c0 -5 -8 -10
-17 -10 -15 0 -16 2 -3 10 19 12 20 12 20 0z m15 -41 c-7 -11 -35 -12 -35 -1
0 4 9 8 20 9 11 1 18 -2 15 -8z"/>
<path d="M918 153 c-6 -26 2 -54 13 -48 12 8 12 65 0 65 -5 0 -11 -8 -13 -17z"/>
<path d="M920 79 c0 -5 5 -7 10 -4 6 3 10 8 10 11 0 2 -4 4 -10 4 -5 0 -10 -5
-10 -11z"/>
</g>
</svg>
